<svg xmlns="http://www.w3.org/2000/svg" width="36" height="36" viewBox="0 0 36 36"><path d="M23.68 19.48H11.16a.35.35 0 0 1-.16-.66.42.42 0 0 1 .16 0h13.68a.35.35 0 1 1 0 .7zm7.88-5.34V31.8a1 1 0 0 1-1 1H5.44a1 1 0 0 1-1-1V14.14l2.85-1.2V4.09a.89.89 0 0 1 .89-.89h10.14l6.93 7zm-12.87-1a.12.12 0 0 0 .12.12h8.56L22 8l-3.31-3.37v8.56zM8 17.74l6.77 4.59h6l7.23-4.7V14h-9.2a.82.82 0 0 1-.82-.82V3.9h-9.8a.19.19 0 0 0-.18.19v13.65zM18.19 23h-2.4l1.42 1a.87.87 0 0 0 .48.15.86.86 0 0 0 .46-.14l1.51-1zm12.67-6.41L28.71 18l-.7.45-6 3.87L21 23l-2.42 1.56a1.56 1.56 0 0 1-.84.25 1.52 1.52 0 0 1-.87-.27L14.54 23l-1-.7L8 18.59l-.7-.48-2.16-1.45V31.8a.31.31 0 0 0 .3.3h25.12a.31.31 0 0 0 .3-.3z" fill="#939393"/></svg>