<svg xmlns="http://www.w3.org/2000/svg" width="36" height="36" viewBox="0 0 36 36">
  <path class="themed defaultFill-BrandPrimary" d="M27.76 28.39l-5.38-9h-9.79l-5.36 9a1.65 1.65 0 0 0 1.42 2.48h17.7a1.64 1.64 0 0 0 1.41-2.49zm-14.91-.59a.64.64 0 1 1-.24-.88.65.65 0 0 1 .24.88zm5.86-3.75a1.64 1.64 0 1 1-.6-2.24 1.65 1.65 0 0 1 .6 2.24zm4.58 2.63a.9.9 0 1 1-1.57-.9.9.9 0 0 1 1.57.9zM21.38 15V5.27h.12a1.27 1.27 0 0 0 0-2.54h-8a1.27 1.27 0 1 0 0 2.54h.12V15L6 27.69a3 3 0 0 0 2.62 4.59h17.7A3 3 0 0 0 29 27.67zm7 15.35a2.3 2.3 0 0 1-2 1.19H8.65a2.34 2.34 0 0 1-2-3.53l7.59-12.73.1-.17V4.57h-.84a.57.57 0 0 1-.57-.57.56.56 0 0 1 .57-.57h8a.56.56 0 0 1 .57.57.57.57 0 0 1-.57.57h-.82v10.66l.1.17L28.36 28a2.32 2.32 0 0 1 .03 2.39z" fill="#00396B" />
</svg>