<svg xmlns="http://www.w3.org/2000/svg" width="36" height="36" viewBox="0 0 36 36"><path d="M27.76 28.39a1.64 1.64 0 0 1-1.41 2.49H8.65a1.65 1.65 0 0 1-1.42-2.48l5.36-9h9.79zm1.2-.72a3 3 0 0 1-2.61 4.61H8.65A3 3 0 0 1 6 27.69L13.62 15V5.27h-.12a1.27 1.27 0 1 1 0-2.54h8a1.27 1.27 0 0 1 0 2.54h-.12V15zm-.6.36L20.78 15.4l-.1-.17V4.57h.82a.57.57 0 0 0 .57-.57.56.56 0 0 0-.57-.57h-8a.56.56 0 0 0-.57.57.57.57 0 0 0 .57.57h.82v10.58l-.1.17-7.59 12.73a2.34 2.34 0 0 0 2 3.53h17.7a2.34 2.34 0 0 0 2-3.55z" fill="#939393"/></svg>