<svg xmlns="http://www.w3.org/2000/svg" width="70" height="70" viewBox="0 0 70 70">
  <g class="themed defaultFill-BrandPrimary" fill="#00396B">
    <path d="M65.6 29.47h-9.29a3.71 3.71 0 0 0-3.7 3.71v18.57a.94.94 0 0 1-.94.94 3.7 3.7 0 0 0-3.7 3.7V61a3.7 3.7 0 0 0 3.7 3.7H61a3.7 3.7 0 0 0 3.7-3.7v-4.61a1 1 0 0 1 .94-.94 3.7 3.7 0 0 0 3.7-3.7V33.18a3.71 3.71 0 0 0-3.74-3.71z" />
    <circle cx="56.31" cy="19.25" r="6.96" />
    <path d="M50.73 47.11V28.54A3.71 3.71 0 0 0 47 24.83H23.81a3.71 3.71 0 0 0-3.7 3.71v18.57a3.7 3.7 0 0 0 3.7 3.7.94.94 0 0 1 .94.94v13.93a3.71 3.71 0 0 0 3.71 3.7h13.92a3.71 3.71 0 0 0 3.71-3.7V51.75a.94.94 0 0 1 .94-.94 3.7 3.7 0 0 0 3.7-3.7zm-2.76 0a1 1 0 0 1-.94.94 3.71 3.71 0 0 0-3.71 3.7v13.93a.94.94 0 0 1-.94.94H28.46a.94.94 0 0 1-.94-.94V51.75a3.71 3.71 0 0 0-3.71-3.7.94.94 0 0 1-.94-.94V28.54a.94.94 0 0 1 .94-.94H47a1 1 0 0 1 .94.94zM35.42 23.07a10.79 10.79 0 1 1 10.79-10.78 10.8 10.8 0 0 1-10.79 10.78zm0-18.57a7.79 7.79 0 1 0 7.79 7.79 7.8 7.8 0 0 0-7.79-7.79z" />
    <path d="M19.17 52.69a.94.94 0 0 1-.94-.94V33.18a3.71 3.71 0 0 0-3.7-3.71H5.24a3.71 3.71 0 0 0-3.7 3.71v18.57a3.7 3.7 0 0 0 3.7 3.7 1 1 0 0 1 .94.94V61a3.7 3.7 0 0 0 3.7 3.7h9.29a3.7 3.7 0 0 0 3.7-3.7v-4.61a3.7 3.7 0 0 0-3.7-3.7z" />
    <circle cx="14.53" cy="19.25" r="6.96" />
  </g>
</svg>